PathFileType	4	(X/Y/Z)	C:/Users/beibeiliu/ov580/test_trc/User3\out5_training_dense_left.trc
DataRate	CameraRate	NumFrames	NumMarkers	Units	OrigDataRate	OrigDataStartFrame	OrigNumFrames
120	120	18	19	mm	120	126	500
Frame#	Time	ThumbCMC			ThumbMCP			ThumbIP			ThumbTip			IndexMCP			IndexPIP			IndexTip			MiddleMCP			MiddlePIP			MiddleTip			RingMCP			RingPIP			RingTip			PinkyMCP			PinkyPIP			PinkyTip			BackHand1			BackHand2			BackHand3	
		X0	Y0	Z0	X1	Y1	Z1	X2	Y2	Z2	X3	Y3	Z3	X4	Y4	Z4	X5	Y5	Z5	X6	Y6	Z6	X7	Y7	Z7	X8	Y8	Z8	X9	Y9	Z9	X10	Y10	Z10	X11	Y11	Z11	X12	Y12	Z12	X13	Y13	Z13	X14	Y14	Z14	X15	Y15	Z15	X16	Y16	Z16	X17	Y17	Z17	X18	Y18	Z18	
125	1.04167	-132.879	87.5333	23.9535	-107.979	105.142	5.96458	-92.2777	106.47	-22.6846	-91.5788	84.7843	-41.8222	-131.711	111.134	-42.1091	-98.2168	110.991	-38.6609	-105.108	91.7861	-9.50849	-120.769	94.2774	-52.464	-93.1543	86.4774	-39.2543	-107.504	68.3542	-6.96166	-119.64	70.8494	-53.0621	-93.8094	67.5772	-31.825	-111.323	54.1709	-6.46629	-118.87	52.1357	-50.4187	-98.2367	52.2735	-29.7842	-114.779	40.8011	-7.52904	-164.156	50.2968	-24.2013	-167.28	35.4124	3.60946	-164.819	71.1509	8.53516	
126	1.05	-124.866	93.9074	28.462	-103.322	108.979	10.473	-86.2376	119.861	-19.2735	-85.9385	101.154	-40.6714	-124.199	124.492	-36.1365	-94.9148	116.954	-30.7411	-108.781	93.3885	-6.75405	-125.343	103.152	-46.8577	-92.6254	100.217	-37.6557	-103.839	78.4352	-5.26245	-116.505	83.363	-50.1299	-94.5753	75.3823	-33.921	-105.804	62.8496	-6.51087	-119.847	63.4107	-50.7164	-98.3766	63.5181	-33.1864	-112.654	49.9299	-7.79154	-164.973	64.3888	-19.7853	-162.555	42.9047	10.8561	-162.437	80.0219	11.7519	
127	1.05833	-120.209	100.377	34.2117	-96.1847	119.821	16.6455	-86.1544	128.472	-11.4784	-86.471	116.032	-40.788	-121.375	133.348	-28.8198	-92.4116	124.024	-26.1492	-105.926	99.128	-3.05579	-120.17	119.387	-40.0332	-91.9383	106.204	-33.5538	-104.823	82.9402	-3.72585	-119.435	96.9939	-44.5594	-95.6847	84.0723	-34.551	-105.219	72.0097	-1.81917	-122.33	76.4106	-47.9335	-99.2699	68.1789	-33.4556	-111.687	58.959	-5.97483	-163.847	75.6996	-8.6988	-164.141	56.7445	12.4618	-158.336	90.1826	18.1657	
128	1.06667	-115.777	106.05	39.1945	-94.5686	127.151	21.0044	-86.0973	139.696	-7.50626	-87.1213	130.628	-32.7994	-123.726	143.962	-19.484	-92.5932	130.871	-22.908	-99.6869	111.137	0.268234	-122.652	129.135	-35.3147	-93.0022	117.194	-31.8315	-103.93	91.1719	-4.64248	-122.179	108.682	-40.7	-98.7674	95.709	-34.099	-105.365	79.033	-1.76807	-129.689	91.086	-41.3898	-103.454	78.8972	-31.0851	-113.865	69.3165	-2.23229	-164.328	88.4935	-3.61309	-163.521	64.2489	20.4561	-154.175	99.2227	31.2278	
129	1.075	-112.586	112.777	44.0867	-94.8313	133.494	23.9372	-89.4837	150.172	-4.89332	-94.3225	141.065	-25.5275	-125.529	156.231	-6.6231	-95.5601	140.471	-16.6328	-101.396	119.023	3.78331	-131.955	139.471	-26.7731	-100.046	127.256	-28.1107	-105.599	99.6851	-1.83851	-130.671	120.328	-33.21	-105.7	105.081	-31.284	-108.393	86.8683	-2.42423	-136.993	102.954	-37.3549	-111.064	92.4611	-27.9767	-116.481	77.5804	-0.196657	-167.908	99.2307	7.94741	-163.69	75.5272	29.7739	-151.081	109.756	39.5034	
130	1.08333	-114.698	120.214	47.3323	-98.7873	144.306	26.4849	-95.2236	158.242	-1.12313	-104.815	150.945	-25.5692	-132.875	165.968	4.07134	-105.295	152.68	-12.4708	-111.057	126.083	8.74906	-139.049	153.096	-14.729	-110.247	140.589	-23.7381	-110.321	111.271	1.6015	-144.929	131.793	-23.6738	-112.291	118.826	-23.5017	-113.852	96.8666	2.44952	-144.496	116.539	-27.7571	-120.741	105.583	-24.4266	-123.779	86.4722	-0.252364	-174.744	108.065	15.8375	-164.316	80.5525	34.7387	-152.679	112.137	49.5836	
131	1.09167	-119.264	122.844	50.5753	-105.975	147.872	27.4553	-104.606	161.966	0.520843	-118.152	151.617	-23.1316	-144.665	172.784	9.97225	-118.369	166.928	-5.19732	-117.809	137.074	10.8422	-151.185	161.308	-7.69522	-121.713	150.624	-17.0425	-121.382	117.868	6.5987	-153.675	140.244	-16.3653	-124.996	127.974	-22.5256	-122.301	105.442	0.799906	-156.169	125.802	-19.0603	-130.816	114.524	-22.6065	-130.156	92.149	1.48524	-179.28	107.253	23.8643	-168.168	84.1131	42.7991	-157.496	113.339	55.2224	
132	1.1	-126.488	128.444	50.8206	-114.37	152.348	20.9034	-122.267	160.289	-8.77862	-135.46	145.951	-26.8701	-160.172	173.237	14.3914	-132.452	171.429	-3.3661	-121.692	146.463	14.9404	-164.461	164.836	-2.57606	-136.513	155.972	-14.7217	-132.639	124.013	10.6196	-164.633	147.706	-9.67765	-137.242	135.05	-18.7901	-130.926	115.616	5.59703	-167.737	129.447	-14.5155	-140.514	122.597	-20.1382	-136.89	100.203	0.323125	-184.276	110.882	29.5197	-169.691	81.9914	48.2647	-165.489	119.976	59.6068	
133	1.10833	-133.767	131.942	48.8354	-126.181	147.676	13.2868	-140.969	144.433	-16.7307	-160.048	124.781	-30.7043	-172.685	173.212	16.5609	-145.777	173.785	-2.98115	-127.488	150.826	14.7345	-179.927	162.828	-0.807632	-149.429	162.436	-12.2225	-142.506	130.541	9.30567	-183.279	142.428	-10.0483	-153.066	142.142	-19.1504	-145.586	120.733	8.03752	-181.333	126.281	-15.7882	-155.055	125.535	-26.2437	-140.648	108.593	-8.0443	-192.242	105.229	35.6879	-177.291	81.8747	50.2225	-173.062	115.952	61.7091	
134	1.11667	-143.789	126.567	47.403	-148.648	138.452	7.31301	-167.527	120.79	-12.2806	-179.831	99.8064	-16.8409	-184.811	168.775	12.3881	-153.009	174.142	-3.67444	-137.112	151.565	8.43402	-191.889	160.28	-1.95654	-164.54	160.097	-18.0087	-153.244	133.126	13.1181	-196.513	138.865	-11.7464	-167.01	141.608	-22.9318	-159.208	120.96	4.98393	-191.821	124.545	-17.7494	-165.899	128.903	-27.6888	-143.719	113.67	-17.7679	-200.854	104.414	31.5469	-187.366	84.1963	51.198	-183.508	117.885	61.9942	
135	1.125	-154.414	122.891	45.0228	-159.705	130.203	0.526027	-181.49	107.331	-16.8214	-191.972	82.4939	-13.4808	-198.293	162.085	4.1369	-170.577	164.091	-11.6059	-149.915	146.283	4.99024	-206.573	149.602	-6.38688	-178.888	153.916	-20.5522	-166.942	124.123	8.8224	-207.397	133.51	-13.4891	-179.504	130.737	-26.7467	-170.237	118.492	2.87033	-204.185	111.011	-14.671	-180.234	120.388	-32.4722	-155.176	110.317	-22.7786	-209.092	96.216	33.6459	-194.273	75.1928	47.1349	-192.668	112.516	59.7436	
136	1.13333	-171.561	117.732	35.8752	-172.588	120.639	-7.34596	-184.015	99.6263	-27.5224	-193.515	70.9402	-15.5246	-217.768	149.49	-0.969636	-192.053	155.893	-17.6466	-167.528	144.154	-1.33434	-223.48	135.334	-12.0847	-194.298	143.169	-25.2073	-176.927	122.971	6.36126	-220.539	114.234	-18.1214	-195.892	122.113	-31.2334	-181.684	108.956	0.400201	-216.488	96.9167	-24.2639	-194.4	106.106	-37.0678	-171.108	105.123	-12.7755	-214.81	83.1935	31.7962	-197.955	65.4053	46.4253	-204.331	101.548	54.4887	
137	1.14167	-184.454	111.895	33.5577	-182.423	116.548	-9.65616	-192.811	90.4058	-30.2849	-193.131	65.204	-18.4582	-237.844	130.629	-0.95718	-212.981	149.243	-18.7434	-186.253	143.496	-1.13849	-238.509	115.248	-12.734	-212.255	132.329	-29.977	-188.061	115.742	-2.90407	-230.346	95.2009	-22.16	-206.141	108.064	-35.17	-191.831	103.52	-1.79254	-222.469	80.107	-26.5798	-202.745	96.0224	-37.7486	-185.663	98.6008	-15.701	-220.146	67.5105	27.8795	-196.536	56.2943	43.638	-213.755	91.1266	53.0286	
138	1.15	-191.437	105.003	33.8186	-192.59	108.44	-9.52689	-199.329	83.0669	-36.9722	-193.867	57.1158	-26.1119	-250.579	114.312	-5.12631	-228.397	133.958	-23.0363	-200.983	134.834	-2.8213	-248.325	97.3316	-20.6117	-226.141	119.181	-32.962	-199.059	112.601	-6.53252	-235.688	81.3357	-23.7646	-214.505	101.755	-35.9809	-196.061	95.4978	-8.46945	-226.259	68.4846	-28.7395	-209.194	86.5802	-40.7203	-194.392	91.2601	-17.8329	-223.154	52.2592	21.5024	-194.403	48.1697	43.0933	-220.413	78.9758	49.5238	
139	1.15833	-199.199	99.7953	31.831	-199.325	98.4312	-12.2648	-201.771	74.9538	-35.9153	-194.471	53.6263	-27.0029	-257.608	102.92	-5.75164	-238.498	126.093	-22.1005	-212.142	126.925	-8.13358	-251.413	82.5864	-24.8907	-237.543	106.566	-37.2258	-208.696	109.594	-8.97069	-232.846	72.9514	-28.3242	-212.978	96.1306	-36.3961	-198.916	99.6928	-6.6523	-222.107	54.0958	-27.2955	-213.731	75.621	-44.1536	-197.245	82.0692	-17.6083	-216.963	45.0436	22.9907	-196.798	40.408	38.8913	-218.832	66.5123	48.3474	
140	1.16667	-202.189	90.6591	32.6549	-199.2	90.825	-10.3733	-200.288	68.3359	-36.5027	-190.517	41.0123	-26.5365	-256.465	87.2786	-10.5141	-240.433	113.21	-26.2951	-214.994	118.271	-9.35587	-250.57	70.0709	-22.099	-237.69	94.6807	-40.0951	-211.449	99.8974	-8.27961	-229.079	64.9261	-28.5255	-212.539	93.9271	-36.3053	-197.734	104.062	-10.0726	-218.728	45.2122	-28.8948	-213.738	66.0668	-45.1922	-201.361	77.525	-22.5773	-213.642	37.7929	21.2455	-189.815	37.5643	43.3568	-224.141	59.3573	48.7248	
141	1.175	-204.659	85.4649	32.7732	-200.993	81.554	-9.20101	-198.572	62.8455	-37.3136	-186.059	38.6627	-28.5121	-256.636	72.514	-11.5734	-246.239	97.2867	-29.9437	-220.463	110.493	-8.39488	-245.767	53.4372	-26.3556	-236.381	85.4745	-41.1331	-213.469	90.5349	-11.3479	-220.981	53.5333	-33.9689	-209.937	79.5864	-41.6667	-194.355	97.3132	-21.3664	-213.406	31.232	-30.7618	-211.764	50.7013	-48.0744	-196.826	68.8799	-22.512	-209.929	28.7702	17.4177	-188.302	29.6389	40.5312	-218.635	49.5318	44.9549	
142	1.18333	-207.75	80.3614	30.9825	-206.846	76.465	-11.711	-197.521	54.8466	-36.5137	-180.43	34.0775	-29.0768	-251.981	52.6541	-19.7327	-241.637	78.9297	-39.7753	-222.562	94.7118	-19.6627	-240.797	40.7639	-32.7652	-230.315	65.9194	-49.2013	-208.498	70.9874	-14.7995	-217.348	38.1301	-34.8074	-207.071	63.8032	-50.3292	-195.882	90.3939	-29.3057	-203.187	18.3434	-31.914	-206.95	37.9376	-49.0462	-189.102	55.7856	-28.9102	-201.286	20.2305	17.4086	-180.744	23.1986	38.5875	-213.814	39.0063	41.862	
